<svg width="336" height="316" viewBox="0 0 336 316" fill="none" xmlns="http://www.w3.org/2000/svg">
<g style="mix-blend-mode:color" opacity="0.7">
<path d="M14.8462 113.416L33.3462 2.41553L43.8462 5.41553L46.3462 7.91553L48.3462 13.9155L50.8462 48.9155L52.8462 104.416L50.8462 168.416L183.346 278.916L333.846 228.916C333.846 228.916 295.378 256.838 269.846 273.416C255.941 282.444 248.307 287.807 233.846 295.916C224.248 301.298 206.846 308.416 206.846 308.416C206.846 308.416 193.037 313.646 182.846 313.416C182.362 313.405 181.828 313.363 181.252 313.295C163.018 311.145 147.008 300.517 131.439 290.786L118.846 282.916L69.8462 247.916L14.8462 205.916C14.8462 205.916 5.78542 198.382 3.34618 191.416C2.88543 190.1 2.56325 188.543 2.33865 186.962C1.48933 180.987 2.44562 174.941 3.63806 169.025L14.8462 113.416Z" fill="url(#paint0_linear_1_79)" fill-opacity="0.6"/>
</g>
<g style="mix-blend-mode:multiply" opacity="0.7">
<path d="M33.3462 2.41553L14.8462 113.416L3.63806 169.025C2.44562 174.941 1.48933 180.987 2.33865 186.962C2.56325 188.543 2.88543 190.1 3.34618 191.416C5.78542 198.382 14.8462 205.916 14.8462 205.916L69.8462 247.916L118.846 282.916L131.439 290.786C147.008 300.517 163.018 311.145 181.252 313.295C181.828 313.363 182.362 313.405 182.846 313.416C193.037 313.646 206.846 308.416 206.846 308.416C206.846 308.416 224.248 301.298 233.846 295.916C248.307 287.807 255.941 282.444 269.846 273.416C295.378 256.838 333.846 228.916 333.846 228.916" stroke="url(#paint1_linear_1_79)" stroke-opacity="0.7" stroke-width="4" stroke-linecap="round"/>
</g>
<defs>
<linearGradient id="paint0_linear_1_79" x1="-72.1538" y1="144.416" x2="31.8462" y2="2.41553" gradientUnits="userSpaceOnUse">
<stop stop-color="#54B465"/>
<stop offset="1" stop-color="#54B465" stop-opacity="0"/>
</linearGradient>
<linearGradient id="paint1_linear_1_79" x1="-72.1538" y1="144.416" x2="31.8462" y2="2.41553" gradientUnits="userSpaceOnUse">
<stop stop-color="#54B465"/>
<stop offset="1" stop-color="#54B465" stop-opacity="0"/>
</linearGradient>
</defs>
</svg>
