<svg width="342" height="346" viewBox="0 0 342 346" fill="none" xmlns="http://www.w3.org/2000/svg">
<g style="mix-blend-mode:color" opacity="0.7">
<path d="M288.846 292.416L139.065 343.477C136.442 344.371 133.544 343.845 131.403 342.086L2.84619 236.416L38.8462 263.416L132.346 308.416L276.346 237.916L283.846 242.416L302.846 153.916L320.846 62.9155L319.346 49.9155L309.346 39.4155L263.346 2.91553C263.346 2.91553 283.616 11.8248 297.346 18.4155C309.846 24.4155 316.927 27.2563 324.846 37.9155C330.003 44.8563 332.749 51.5269 334.846 59.9155C338.346 73.9155 338.346 86.4155 338.346 86.4155C339.85 108.098 340.072 129.696 339.346 151.416L335.846 228.916C335.846 228.916 333.346 257.416 324.346 268.916C313.56 282.697 288.846 292.416 288.846 292.416Z" fill="#D9D9D9"/>
<path d="M288.846 292.416L139.065 343.477C136.442 344.371 133.544 343.845 131.403 342.086L2.84619 236.416L38.8462 263.416L132.346 308.416L276.346 237.916L283.846 242.416L302.846 153.916L320.846 62.9155L319.346 49.9155L309.346 39.4155L263.346 2.91553C263.346 2.91553 283.616 11.8248 297.346 18.4155C309.846 24.4155 316.927 27.2563 324.846 37.9155C330.003 44.8563 332.749 51.5269 334.846 59.9155C338.346 73.9155 338.346 86.4155 338.346 86.4155C339.85 108.098 340.072 129.696 339.346 151.416L335.846 228.916C335.846 228.916 333.346 257.416 324.346 268.916C313.56 282.697 288.846 292.416 288.846 292.416Z" fill="url(#paint0_linear_1_65)"/>
</g>
<g style="mix-blend-mode:multiply" opacity="0.7">
<path d="M263.346 2.91553C263.346 2.91553 283.616 11.8248 297.346 18.4155C309.846 24.4155 319.427 30.7563 327.346 41.4155C332.503 48.3563 332.749 51.5269 334.846 59.9155C338.346 73.9155 338.346 86.4155 338.346 86.4155C339.85 108.098 340.072 129.696 339.346 151.416L335.846 228.916C335.846 228.916 333.346 257.416 324.346 268.916C313.56 282.697 288.846 292.416 288.846 292.416L139.065 343.477C136.442 344.371 133.544 343.845 131.403 342.086L2.84619 236.416" stroke="url(#paint1_linear_1_65)" stroke-width="4" stroke-linecap="round"/>
</g>
<defs>
<linearGradient id="paint0_linear_1_65" x1="47.3462" y1="285.416" x2="335.846" y2="32.9155" gradientUnits="userSpaceOnUse">
<stop stop-color="#FF9C00"/>
<stop offset="0.919883" stop-color="#FF9C00" stop-opacity="0"/>
</linearGradient>
<linearGradient id="paint1_linear_1_65" x1="179.846" y1="351.416" x2="29.8462" y2="195.416" gradientUnits="userSpaceOnUse">
<stop stop-color="#FF9C00"/>
<stop offset="0.919883" stop-color="#FF9C00" stop-opacity="0"/>
</linearGradient>
</defs>
</svg>
